<?xml version="1.0" standalone="no"?>
<!DOCTYPE svg PUBLIC "-//W3C//DTD SVG 20010904//EN"
 "http://www.w3.org/TR/2001/REC-SVG-20010904/DTD/svg10.dtd">
<svg version="1.0" xmlns="http://www.w3.org/2000/svg"
 width="600.000000pt" height="600.000000pt" viewBox="0 0 600.000000 600.000000"
 preserveAspectRatio="xMidYMid meet">
<g transform="translate(0.000000,600.000000) scale(0.100000,-0.100000)"
fill="#000000" stroke="none">
<path d="M3993 5105 c0 -8 4 -12 9 -9 5 3 6 10 3 15 -9 13 -12 11 -12 -6z"/>
<path d="M3985 5047 c-55 -30 -161 -89 -235 -132 -74 -43 -155 -89 -180 -103
-25 -14 -142 -80 -260 -147 -118 -67 -228 -129 -243 -137 -22 -11 -48 -51
-104 -159 -90 -174 -151 -279 -162 -279 -4 0 -109 66 -232 147 -319 208 -453
291 -483 299 -19 4 -33 1 -47 -12 -28 -25 -20 -62 40 -190 l48 -101 -326 -7
c-373 -8 -397 -10 -417 -41 -20 -30 -9 -51 40 -80 50 -29 503 -203 691 -265
72 -23 142 -49 156 -56 17 -8 65 -75 134 -186 163 -260 243 -376 269 -393 22
-15 30 -13 117 19 52 19 144 55 204 80 l110 46 206 0 c198 0 207 1 255 25 59
29 126 93 160 151 25 43 34 71 169 554 206 733 215 761 263 816 52 61 120 56
195 -14 28 -27 73 -149 97 -264 6 -32 19 -67 29 -79 17 -21 21 -21 50 -10 37
16 38 25 11 132 -35 134 -80 247 -112 280 -36 35 -92 65 -160 86 -27 8 -58 23
-69 34 -23 23 -61 39 -92 39 -12 0 -67 -24 -122 -53z m165 12 c0 -6 7 -8 16
-5 14 5 15 4 4 -9 -11 -13 -10 -14 4 -9 9 3 16 1 16 -5 0 -6 3 -10 8 -9 4 1
22 -6 40 -15 18 -10 37 -15 41 -12 13 8 103 -40 94 -50 -5 -4 0 -5 9 -2 13 4
15 2 11 -10 -5 -12 -3 -14 7 -8 9 5 11 4 6 -3 -4 -7 -1 -12 7 -12 13 0 44 -55
51 -90 2 -8 6 -22 9 -30 8 -20 31 -102 32 -115 1 -5 6 -19 12 -30 6 -11 11
-36 11 -55 0 -28 -4 -36 -19 -37 -14 -1 -20 7 -25 35 -4 20 -10 42 -14 47 -4
6 -7 22 -6 38 1 15 -1 27 -4 27 -3 0 -16 35 -29 78 -13 42 -30 85 -38 94 -8 9
-12 21 -8 27 3 6 0 9 -8 5 -7 -2 -22 6 -32 20 -11 14 -24 22 -33 18 -9 -3 -13
-1 -9 4 3 5 -2 11 -11 12 -9 1 -28 3 -42 5 -14 3 -39 -1 -57 -8 -17 -8 -34
-11 -37 -9 -3 2 -4 1 -2 -2 4 -6 -2 -15 -30 -47 -6 -7 -15 -23 -19 -36 -4 -15
-12 -20 -22 -16 -13 4 -14 3 -4 -9 8 -10 9 -16 1 -21 -6 -3 -7 -11 -4 -17 4
-7 2 -8 -4 -4 -8 5 -12 -4 -12 -28 0 -20 -3 -36 -7 -36 -5 0 -9 -14 -10 -31
-1 -17 -8 -37 -14 -45 -6 -8 -8 -14 -5 -14 4 0 1 -10 -5 -22 -7 -13 -14 -38
-16 -57 -2 -19 -9 -41 -14 -48 -6 -6 -8 -17 -5 -22 10 -16 -11 -22 -23 -7 -10
12 -9 22 6 66 3 8 7 26 9 40 7 45 9 55 16 65 3 6 9 27 13 47 4 23 11 35 18 31
7 -4 8 0 4 12 -4 9 -2 24 4 31 6 7 8 17 5 22 -3 5 4 23 15 40 10 18 19 37 19
43 0 5 10 23 22 39 16 22 24 27 31 18 5 -8 6 -5 2 9 -4 16 0 25 16 33 19 11
20 13 6 28 -9 8 -24 16 -34 17 -10 0 -24 4 -31 9 -6 4 -12 2 -12 -3 0 -6 -7
-11 -15 -11 -8 0 -15 -4 -15 -8 0 -5 -16 -14 -35 -22 -19 -8 -35 -18 -35 -23
0 -5 -6 -7 -13 -4 -8 3 -20 -3 -27 -13 -8 -11 -17 -17 -21 -14 -12 7 -39 -7
-33 -17 3 -5 -2 -9 -11 -9 -8 0 -18 -7 -21 -15 -4 -8 -14 -15 -24 -15 -11 0
-22 -4 -25 -10 -3 -5 -14 -10 -24 -10 -10 0 -25 -9 -32 -20 -8 -10 -21 -20
-29 -22 -8 -2 -23 -11 -34 -20 -11 -10 -28 -18 -37 -18 -10 0 -25 -7 -33 -16
-9 -8 -16 -12 -16 -9 0 4 -23 -10 -50 -30 -28 -21 -53 -35 -57 -32 -3 3 -17
-5 -31 -19 -15 -13 -42 -29 -59 -35 -18 -6 -33 -15 -33 -19 0 -5 -7 -6 -17 -3
-11 4 -14 3 -9 -5 8 -13 -39 -36 -55 -26 -15 9 11 46 27 40 8 -3 13 -2 10 3
-3 5 14 17 38 27 24 10 42 22 40 26 -5 7 13 12 43 11 6 0 9 6 6 15 -4 10 -2
13 5 8 7 -4 12 -3 12 1 0 16 38 34 46 21 5 -7 3 -8 -6 -3 -9 5 -11 4 -6 -4 4
-6 12 -9 17 -5 5 3 7 9 4 14 -8 13 42 43 56 34 7 -4 9 -3 6 3 -7 11 49 47 62
39 5 -3 12 1 15 9 5 13 36 31 59 33 4 1 15 8 24 17 8 9 22 14 30 11 8 -3 11
-2 8 4 -3 5 8 16 26 25 23 12 29 13 24 3 -4 -7 2 -3 12 8 10 12 38 32 63 44
25 13 48 27 51 33 4 5 12 6 19 2 9 -5 11 -4 6 3 -4 7 -2 12 4 12 7 0 26 10 43
22 17 12 27 17 23 10 -5 -8 -2 -10 8 -6 9 3 14 9 12 13 -3 4 15 8 40 9 26 1
44 -3 44 -9z m-59 -97 c-22 -26 -51 -77 -65 -113 -19 -52 -143 -462 -164 -544
-7 -29 -168 -587 -193 -672 -26 -86 -65 -130 -148 -169 -110 -51 -106 -49 -86
-52 9 -2 37 4 61 13 25 9 51 14 59 11 8 -3 14 -2 12 2 -4 13 41 52 47 39 3 -7
5 -6 5 3 1 8 13 29 29 45 15 16 28 36 29 45 0 8 8 35 17 59 9 24 16 52 16 62
0 11 4 19 10 19 5 0 7 7 4 15 -4 8 -2 15 4 15 5 0 12 18 16 40 3 23 10 39 14
36 5 -3 7 8 4 23 -2 16 1 32 7 35 6 4 11 18 11 31 0 14 8 47 19 74 10 28 17
52 14 55 -9 9 9 46 19 40 6 -4 8 -3 5 3 -6 9 6 67 20 103 3 8 5 21 4 29 -1 7
2 10 8 6 7 -3 10 1 9 12 0 10 0 29 1 43 1 21 3 22 12 10 9 -13 10 -13 6 1 -3
9 -1 34 4 55 5 22 11 44 12 49 1 6 6 16 10 23 5 6 5 17 2 22 -3 6 -1 10 5 10
6 0 9 4 6 9 -4 5 -3 16 0 25 5 13 9 14 20 5 18 -15 18 -47 0 -90 -26 -66 -28
-74 -32 -113 -3 -22 -11 -47 -19 -56 -9 -10 -13 -25 -9 -36 5 -16 4 -16 -5 -4
-7 9 -11 10 -11 3 0 -6 4 -15 10 -18 6 -4 4 -17 -5 -35 -8 -16 -14 -35 -13
-42 2 -7 -3 -12 -11 -10 -9 2 -11 -3 -7 -14 6 -14 -9 -76 -31 -134 -4 -8 -5
-21 -4 -28 1 -7 -10 -35 -24 -64 -19 -37 -21 -47 -9 -37 16 13 16 12 4 -11
-16 -28 -20 -45 -22 -77 0 -13 -4 -23 -9 -23 -5 0 -8 -3 -8 -7 3 -16 -14 -74
-22 -79 -5 -3 -7 -10 -3 -15 5 -9 -46 -99 -73 -127 -7 -7 -18 -10 -24 -6 -7 4
-9 3 -5 -4 3 -6 -17 -24 -50 -42 l-56 -33 -204 2 c-217 1 -215 1 -348 -58 -23
-10 -66 -29 -96 -41 -30 -12 -70 -29 -88 -37 -26 -13 -35 -14 -45 -4 -10 11
-7 12 13 6 19 -5 21 -4 10 4 -8 6 -24 8 -34 5 -14 -5 -18 -2 -13 8 3 8 0 15
-7 15 -7 0 -13 -6 -13 -14 0 -7 5 -13 10 -13 15 0 -1 -13 -18 -16 -8 -1 -17 7
-20 17 -4 11 -11 16 -17 13 -6 -4 -8 -2 -5 3 4 6 -2 18 -13 28 -16 14 -17 21
-8 39 10 18 9 19 -4 9 -12 -11 -18 -7 -34 22 -10 19 -22 35 -27 35 -4 0 -6 14
-3 30 2 17 0 28 -5 24 -5 -3 -7 -11 -3 -17 3 -7 -3 -1 -14 13 -11 13 -19 27
-17 30 2 4 -4 14 -13 23 -30 28 -39 42 -34 56 3 8 0 11 -7 7 -7 -5 -11 1 -11
16 0 18 -2 20 -10 8 -8 -12 -10 -12 -10 5 0 11 -14 38 -30 59 -19 25 -28 47
-25 60 3 12 2 15 -1 8 -4 -8 -17 4 -36 33 -16 25 -36 45 -44 45 -8 0 -14 5
-14 10 0 6 -3 9 -7 9 -21 -3 -33 2 -27 13 5 7 3 8 -5 4 -7 -5 -26 -2 -42 5
-17 6 -26 15 -21 18 6 3 -12 6 -40 7 -31 0 -53 6 -58 14 -5 8 -12 11 -16 8 -3
-4 -19 -1 -35 8 -16 8 -29 12 -29 9 0 -3 -10 0 -22 7 -13 7 -26 12 -30 13 -3
0 -10 3 -14 8 -4 4 -18 7 -32 7 -19 0 -22 3 -13 13 11 14 5 27 -13 27 -6 0 -4
-5 4 -10 12 -8 9 -10 -13 -10 -15 0 -35 4 -45 9 -20 11 -45 19 -53 17 -3 0
-13 7 -23 17 -10 9 -31 17 -47 17 -16 0 -29 5 -29 10 0 6 -3 9 -7 9 -5 -1 -16
-1 -27 0 -14 1 -16 4 -8 14 8 9 4 12 -15 14 -19 1 -22 -1 -12 -8 26 -17 0 -9
-46 13 -25 12 -45 25 -45 29 0 4 -8 5 -17 3 -11 -3 -33 9 -58 32 -22 21 -31
34 -21 30 15 -5 17 -4 7 7 -9 11 -6 14 16 15 16 0 116 3 223 7 255 8 404 8
432 0 18 -5 20 -4 8 4 -13 9 -12 11 6 11 11 0 29 10 40 22 10 12 13 18 5 13
-10 -6 -12 -2 -6 16 4 13 4 21 0 17 -5 -5 -13 2 -20 15 -8 15 -8 24 -1 29 7 5
4 8 -7 8 -10 0 -16 4 -12 10 3 5 -2 18 -12 30 -10 11 -17 24 -16 28 1 4 -3 12
-8 19 -18 20 -20 73 -4 80 8 3 12 9 9 14 -3 5 6 4 20 -2 14 -7 23 -16 19 -22
-4 -6 -1 -7 6 -2 8 4 24 -1 40 -12 14 -11 36 -23 49 -27 12 -4 20 -11 17 -16
-5 -8 32 -24 49 -21 5 1 6 -6 2 -15 -4 -12 -2 -15 9 -10 8 3 15 2 15 -2 0 -4
13 -13 30 -20 16 -7 42 -26 59 -41 16 -15 33 -25 39 -23 6 2 20 -6 31 -17 10
-10 23 -16 27 -13 4 4 4 1 0 -5 -4 -8 -1 -13 7 -13 8 0 38 -16 67 -35 29 -19
48 -35 44 -35 -5 0 18 -14 51 -31 33 -17 67 -38 75 -47 14 -15 13 -15 -5 -1
-18 13 -19 13 -7 -3 8 -9 20 -14 28 -11 8 3 14 0 14 -6 0 -6 16 -11 35 -11 19
0 35 5 35 11 0 6 6 9 14 6 7 -3 13 0 13 6 -1 32 4 48 13 42 5 -3 12 7 16 22 3
15 20 46 37 67 17 22 25 36 18 32 -7 -5 -3 10 10 32 13 22 26 39 29 37 3 -2 6
8 7 22 2 41 20 51 41 23 9 -14 15 -29 14 -35 -2 -5 0 -7 4 -3 4 4 12 0 19 -9
9 -13 14 -13 20 -3 6 9 4 11 -5 5 -9 -6 -11 -4 -6 4 5 7 14 10 21 7 7 -2 16 2
19 10 3 9 11 12 17 8 7 -4 9 -3 6 2 -7 13 27 34 40 26 12 -9 27 -44 24 -59 -1
-7 3 -13 8 -13 6 0 8 -7 5 -15 -4 -8 -1 -15 6 -15 6 0 9 -4 5 -9 -3 -5 -1 -12
5 -16 5 -3 10 -17 10 -30 0 -13 5 -27 11 -30 6 -4 8 -14 5 -22 -3 -8 -1 -11 4
-8 6 3 10 -5 10 -19 0 -15 9 -43 20 -63 11 -21 20 -46 20 -56 0 -10 7 -31 15
-47 8 -16 16 -37 18 -47 2 -10 8 -27 14 -38 6 -11 20 -51 33 -90 12 -38 28
-83 35 -99 7 -16 11 -35 8 -43 -3 -7 0 -13 7 -13 7 0 10 -6 7 -14 -3 -8 -1
-16 5 -18 6 -2 12 -32 13 -67 2 -49 0 -61 -11 -57 -8 3 -11 0 -7 -10 3 -7 1
-14 -4 -14 -4 0 -14 -9 -21 -21 -16 -25 -8 -22 46 18 24 18 32 31 32 56 0 32
-64 229 -175 542 -31 88 -71 201 -88 250 -38 107 -55 116 -126 65 -23 -17 -46
-29 -49 -25 -3 3 2 21 12 40 19 35 74 73 231 162 39 22 224 128 413 237 426
244 444 253 373 168z m-837 -368 c-10 -8 -13 -13 -6 -9 20 10 35 -4 21 -21 -6
-7 -15 -11 -20 -8 -5 3 -12 -1 -15 -10 -3 -8 -12 -17 -20 -20 -10 -4 -13 -2
-8 7 4 6 -1 4 -12 -6 -44 -40 -92 -65 -104 -54 -6 7 -11 8 -10 2 4 -20 -13
-55 -23 -48 -6 4 -8 0 -4 -11 5 -11 3 -15 -5 -10 -7 5 -9 2 -5 -8 8 -23 -4
-30 -18 -11 -13 18 -7 36 25 77 13 17 13 19 0 12 -8 -4 -4 2 10 13 24 20 36
25 53 22 5 -1 6 3 3 8 -3 5 15 19 41 32 27 12 59 31 72 41 29 22 53 24 25 2z
m-524 -1364 c0 -5 -4 -10 -10 -10 -5 0 -10 5 -10 10 0 6 5 10 10 10 6 0 10 -4
10 -10z"/>
<path d="M4210 5006 c0 -3 9 -10 20 -16 11 -6 20 -8 20 -6 0 3 -9 10 -20 16
-11 6 -20 8 -20 6z"/>
<path d="M3999 4623 c-13 -16 -12 -17 4 -4 16 13 21 21 13 21 -2 0 -10 -8 -17
-17z"/>
<path d="M2174 4425 c5 -15 4 -17 -4 -9 -12 12 -50 7 -50 -6 0 -5 -3 -16 -7
-26 -5 -13 -3 -15 7 -9 10 6 12 4 7 -9 -4 -10 -3 -15 3 -11 6 3 10 1 10 -5 0
-7 9 -25 21 -41 11 -16 17 -34 13 -40 -4 -8 -3 -9 4 -5 7 4 12 2 12 -3 0 -21
3 -26 21 -39 11 -7 19 -19 19 -26 0 -16 42 -56 59 -56 7 0 9 -5 6 -11 -4 -6
-1 -10 6 -8 33 4 60 -2 54 -12 -4 -6 -14 -8 -23 -4 -9 3 -13 2 -8 -2 4 -4 26
-9 49 -9 47 -2 171 -46 160 -57 -4 -4 2 -6 13 -5 10 1 52 -8 92 -21 63 -20 77
-22 98 -10 l24 13 -33 31 c-18 17 -41 34 -51 38 -10 4 -14 12 -10 18 5 8 3 9
-5 4 -8 -4 -21 1 -32 14 -11 12 -26 21 -34 21 -8 0 -15 5 -15 11 0 5 -4 8 -9
5 -5 -3 -11 1 -15 9 -3 8 -11 15 -19 15 -7 0 -26 16 -41 35 -16 19 -32 32 -37
29 -14 -8 -70 29 -65 43 3 7 0 15 -6 19 -6 4 -8 3 -4 -4 3 -6 2 -13 -4 -17 -5
-3 -10 -2 -10 4 0 5 -9 13 -21 16 -11 4 -18 12 -16 19 3 7 -4 13 -16 14 -12 0
-27 8 -33 16 -6 9 -14 13 -17 9 -4 -3 -7 -1 -7 5 0 7 -7 12 -15 12 -9 0 -18 6
-21 14 -3 9 -12 12 -21 9 -9 -4 -14 -2 -11 3 3 5 -1 16 -10 24 -14 13 -15 12
-8 -5z m147 -131 c337 -226 420 -284 405 -284 -8 0 -25 4 -38 10 -13 5 -104
38 -203 74 -99 35 -188 67 -197 71 -9 4 -43 50 -74 103 -32 54 -64 107 -72
120 -8 12 -10 22 -5 22 6 0 88 -52 184 -116z"/>
<path d="M3156 4311 c-3 -4 -19 -11 -36 -15 -18 -3 -29 -10 -25 -16 3 -5 -1
-10 -10 -10 -9 0 -14 -4 -11 -9 3 -4 -3 -16 -14 -26 -11 -10 -20 -14 -20 -10
0 4 -9 0 -20 -10 -11 -10 -17 -22 -14 -26 3 -5 0 -9 -5 -9 -6 0 -11 -7 -11
-16 0 -8 -4 -12 -10 -9 -5 3 -10 2 -10 -3 0 -4 -21 -31 -47 -59 -80 -85 -93
-101 -93 -119 0 -4 -8 0 -17 7 -16 12 -17 12 -6 -2 7 -9 10 -19 6 -22 -3 -4
-1 -7 6 -7 7 0 9 -5 6 -10 -4 -6 -12 -7 -18 -4 -7 4 -8 3 -4 -1 4 -5 14 -10
22 -11 7 -1 29 -14 48 -28 19 -14 39 -26 45 -26 6 0 16 -9 22 -20 6 -11 18
-20 28 -20 18 -1 54 -24 47 -31 -2 -3 5 -11 17 -18 16 -10 19 -10 12 1 -4 7 2
4 14 -6 24 -21 51 -38 96 -59 20 -10 24 -16 15 -20 -10 -4 -9 -6 3 -6 29 -2
88 -34 81 -44 -3 -6 -1 -7 5 -3 6 4 20 -1 30 -11 10 -10 25 -19 33 -21 7 -2
17 -9 21 -15 4 -7 8 -8 8 -4 0 4 9 3 19 -2 40 -22 59 51 24 91 -8 9 -13 22
-12 30 3 17 -10 48 -29 71 -14 15 -13 17 4 17 17 0 17 1 -2 14 -17 12 -35 52
-50 111 -1 6 -12 34 -23 64 -11 30 -18 58 -15 62 3 5 0 9 -7 9 -7 0 -10 11 -6
33 3 17 3 26 0 20 -8 -21 -26 -15 -20 7 3 10 -1 27 -8 37 -10 14 -11 21 -2 32
10 12 9 14 -3 9 -16 -6 -17 -2 -23 56 -1 13 -5 22 -8 20 -11 -6 -31 24 -24 36
3 5 4 10 1 10 -3 0 -7 -4 -10 -9z m7 -63 c112 -319 141 -401 181 -506 25 -68
46 -128 46 -133 0 -5 -12 -1 -27 10 -16 10 -86 54 -158 97 -129 77 -299 186
-343 222 l-23 18 64 75 c62 73 236 259 242 259 2 0 10 -19 18 -42z m-129 -43
c-4 -8 -11 -15 -16 -15 -6 0 -5 6 2 15 7 8 14 15 16 15 2 0 1 -7 -2 -15z"/>
<path d="M3059 4173 c-13 -16 -12 -17 4 -4 16 13 21 21 13 21 -2 0 -10 -8 -17
-17z"/>
<path d="M3095 4181 c-3 -5 -2 -12 3 -15 5 -3 9 1 9 9 0 17 -3 19 -12 6z"/>
<path d="M3020 4090 c-9 -6 -10 -10 -3 -10 6 0 15 5 18 10 8 12 4 12 -15 0z"/>
<path d="M2926 4008 c3 -5 10 -6 15 -3 13 9 11 12 -6 12 -8 0 -12 -4 -9 -9z"/>
<path d="M3059 4283 c-13 -16 -12 -17 4 -4 16 13 21 21 13 21 -2 0 -10 -8 -17
-17z"/>
<path d="M1640 4148 c0 -4 -6 -5 -14 -2 -26 10 -25 -13 2 -43 15 -17 42 -34
60 -38 17 -3 32 -11 32 -15 0 -5 7 -6 17 -3 12 5 14 3 8 -7 -6 -10 -4 -12 8
-7 9 3 50 -9 94 -30 43 -19 88 -35 101 -35 12 0 22 -4 22 -9 0 -5 7 -5 17 -2
10 4 14 2 10 -4 -4 -6 -1 -10 6 -9 22 2 227 -68 217 -74 -5 -3 7 -7 27 -7 21
-1 42 -8 48 -17 7 -9 14 -14 17 -11 6 6 98 -24 115 -37 7 -5 16 -7 22 -4 5 3
11 1 13 -5 2 -5 15 -12 28 -13 35 -5 160 -45 192 -62 15 -8 30 -13 35 -12 4 1
25 -6 47 -15 21 -9 44 -17 51 -17 21 0 76 -26 69 -32 -3 -4 3 -4 14 -1 12 3
31 -2 43 -10 11 -9 28 -13 35 -10 8 3 14 -1 14 -8 0 -7 3 -10 6 -6 4 3 19 0
35 -8 16 -9 32 -14 36 -13 8 2 64 -14 115 -34 15 -6 26 -13 24 -17 -2 -3 10
-6 27 -5 17 0 43 -4 58 -9 32 -13 67 7 49 28 -6 8 -5 16 3 24 6 7 8 11 2 10
-5 -2 -21 3 -34 10 -14 8 -21 9 -17 2 4 -6 2 -11 -3 -11 -6 0 -11 5 -11 11 0
5 -4 8 -9 5 -5 -4 -11 -3 -13 1 -5 11 -77 59 -120 79 -20 9 -35 21 -32 26 3 4
-4 8 -16 8 -12 0 -18 4 -15 10 3 6 -1 7 -9 4 -9 -3 -16 -2 -16 2 0 5 -14 15
-30 22 -17 8 -27 18 -24 24 4 7 2 8 -4 4 -17 -10 -175 96 -159 107 8 6 6 7 -6
3 -18 -6 -54 12 -92 46 -18 16 -148 68 -164 66 -19 -2 -22 4 -10 20 12 15 12
16 -2 4 -17 -13 -48 -7 -61 12 -5 7 -8 7 -8 -2 0 -10 -4 -10 -20 0 -14 9 -16
14 -7 20 7 4 8 8 2 8 -5 0 -16 -4 -24 -9 -9 -6 -33 0 -68 15 -29 13 -60 24
-68 24 -8 0 -15 5 -15 11 0 5 -5 7 -11 3 -6 -3 -14 -2 -18 3 -14 20 -125 35
-301 39 -102 3 -215 6 -252 7 -38 2 -68 -1 -68 -5z m550 -48 c36 -10 162 -52
281 -93 176 -61 231 -84 292 -126 104 -70 396 -249 491 -301 44 -24 75 -45 70
-47 -25 -8 -1694 569 -1694 586 0 3 111 4 247 3 200 -3 260 -7 313 -22z"/>
<path d="M2538 3923 c7 -3 16 -2 19 1 4 3 -2 6 -13 5 -11 0 -14 -3 -6 -6z"/>
<path d="M2805 3790 c-3 -6 1 -7 9 -4 18 7 21 14 7 14 -6 0 -13 -4 -16 -10z"/>
<path d="M3331 3884 c0 -11 3 -14 6 -6 3 7 2 16 -1 19 -3 4 -6 -2 -5 -13z"/>
<path d="M3353 3851 c0 -11 5 -18 9 -15 4 3 5 11 1 19 -7 21 -12 19 -10 -4z"/>
<path d="M4394 5032 c3 -5 0 -13 -6 -15 -9 -4 -10 -6 -1 -6 17 -1 25 16 12 25
-7 4 -9 3 -5 -4z"/>
<path d="M4250 4890 c-8 -5 -10 -10 -5 -10 6 0 17 5 25 10 8 5 11 10 5 10 -5
0 -17 -5 -25 -10z"/>
<path d="M3440 4790 c-12 -7 -10 -9 7 -7 12 0 19 5 17 9 -6 10 -6 10 -24 -2z"/>
<path d="M2208 4537 c12 -7 19 -17 15 -22 -4 -4 -2 -5 6 0 12 7 11 10 -4 22
-11 7 -24 13 -29 13 -6 -1 -1 -6 12 -13z"/>
<path d="M4420 4529 c0 -5 -5 -7 -12 -3 -7 4 -8 3 -4 -4 4 -6 13 -9 21 -6 8 4
12 10 9 15 -7 12 -14 11 -14 -2z"/>
<path d="M4057 4497 c-3 -8 -2 -20 3 -26 5 -9 8 -4 8 13 0 29 -3 32 -11 13z"/>
<path d="M4440 4506 c0 -2 8 -10 18 -17 15 -13 16 -12 3 4 -13 16 -21 21 -21
13z"/>
<path d="M2279 4468 c-12 -8 -12 -9 1 -5 8 2 20 -3 26 -11 9 -13 11 -13 11 1
0 20 -20 28 -38 15z"/>
<path d="M3096 3305 c-11 -8 -15 -15 -9 -15 6 0 16 7 23 15 16 19 11 19 -14 0z"/>
<path d="M2597 3216 c-4 -10 -1 -13 8 -9 8 3 12 9 9 14 -7 12 -11 11 -17 -5z"/>
<path d="M5230 1830 c-9 -6 -10 -10 -3 -10 6 0 15 5 18 10 8 12 4 12 -15 0z"/>
<path d="M5396 1827 c3 -10 9 -15 12 -12 3 3 0 11 -7 18 -10 9 -11 8 -5 -6z"/>
<path d="M2167 1816 c-4 -10 -1 -13 8 -9 8 3 12 9 9 14 -7 12 -11 11 -17 -5z"/>
<path d="M278 1807 c-50 -14 -63 -23 -116 -71 -54 -50 -77 -167 -49 -242 26
-67 81 -112 207 -165 138 -58 180 -102 180 -187 -1 -97 -79 -172 -180 -172
-69 0 -146 27 -189 66 l-39 34 -17 -26 c-16 -25 -16 -27 9 -53 52 -54 112 -76
218 -79 86 -3 103 -1 150 21 107 49 153 126 146 245 -6 117 -47 161 -219 238
-46 21 -99 49 -118 62 -88 64 -76 208 22 259 63 32 200 9 259 -44 14 -13 18
-13 18 -2 0 8 3 24 6 35 5 19 -3 26 -58 53 -75 37 -161 47 -230 28z m9 -31 c0
-8 -3 -14 -6 -13 -3 1 -23 -11 -44 -27 -21 -16 -41 -26 -44 -22 -4 4 -1 11 7
16 8 6 11 10 5 10 -5 1 10 12 35 25 25 13 45 24 46 25 0 0 1 -6 1 -14z m43 4
c-20 -13 -33 -13 -25 0 3 6 14 10 23 10 15 0 15 -2 2 -10z m170 -22 c10 -6 7
-7 -10 -2 -14 3 -32 11 -40 16 -10 6 -7 7 10 2 14 -3 32 -11 40 -16z m-301
-66 c-11 -2 -15 -10 -12 -23 3 -10 1 -19 -4 -19 -5 0 -9 -22 -9 -50 0 -27 4
-50 9 -50 5 0 7 -8 5 -18 -3 -12 2 -24 14 -31 10 -6 17 -15 15 -19 -3 -4 5
-16 16 -27 11 -11 17 -14 13 -7 -6 10 -2 10 18 1 14 -7 23 -16 20 -20 -3 -5 4
-9 15 -9 11 0 23 -4 26 -10 3 -5 15 -10 25 -10 10 0 24 -8 29 -17 7 -13 10
-14 11 -4 0 12 3 12 18 -1 9 -8 32 -20 49 -27 18 -7 43 -26 55 -41 12 -16 26
-26 30 -24 4 3 5 -3 1 -12 -4 -11 -3 -15 5 -10 15 9 29 -46 26 -109 -3 -85 -3
-87 -16 -79 -7 5 -8 3 -3 -5 4 -7 -3 -23 -16 -38 -13 -13 -23 -28 -21 -31 1
-4 -4 -7 -10 -7 -7 -1 -12 -7 -10 -15 3 -11 0 -11 -12 -1 -9 7 -13 18 -9 24 4
6 1 7 -8 3 -8 -4 -5 -1 5 8 10 8 23 13 27 10 5 -3 6 3 2 12 -4 10 -2 15 3 11
11 -6 13 9 14 94 1 64 -29 134 -61 144 -11 4 -17 11 -13 16 3 5 2 8 -3 7 -12
-4 -83 24 -83 33 0 4 -12 10 -27 14 -38 9 -96 37 -105 49 -4 6 -8 8 -8 4 0 -4
-16 9 -35 28 -20 19 -32 40 -29 46 4 6 3 8 -3 5 -6 -4 -12 1 -15 11 -6 29 -3
116 6 137 6 16 6 17 -3 5 -16 -22 -13 -4 4 30 16 31 32 40 55 31 13 -5 13 -6
-1 -9z m-69 -692 c0 -5 -7 -7 -15 -4 -8 4 -15 8 -15 10 0 2 7 4 15 4 8 0 15
-4 15 -10z m70 -47 c0 -2 -10 2 -22 9 -13 7 -26 12 -29 11 -3 -1 -6 4 -6 12 0
9 9 7 29 -8 15 -11 28 -22 28 -24z m268 22 c-2 -6 -10 -8 -18 -6 -8 1 -11 -1
-7 -5 5 -5 -13 -14 -40 -21 -26 -7 -49 -10 -52 -8 -8 8 5 15 32 17 15 1 27 7
27 12 0 5 3 7 6 3 4 -3 13 1 21 9 16 16 37 15 31 -1z m-238 -25 c0 -5 -5 -10
-11 -10 -5 0 -7 5 -4 10 3 6 8 10 11 10 2 0 4 -4 4 -10z m25 0 c3 -5 1 -10 -4
-10 -6 0 -11 5 -11 10 0 6 2 10 4 10 3 0 8 -4 11 -10z m70 -10 c-3 -5 -18 -9
-33 -9 l-27 1 30 8 c17 4 31 8 33 9 2 0 0 -3 -3 -9z"/>
<path d="M483 1315 c0 -8 4 -12 9 -9 5 3 6 10 3 15 -9 13 -12 11 -12 -6z"/>
<path d="M541 1124 c0 -11 3 -14 6 -6 3 7 2 16 -1 19 -3 4 -6 -2 -5 -13z"/>
<path d="M1910 1810 c-141 -25 -233 -111 -281 -265 -18 -56 -22 -93 -21 -185
1 -192 55 -322 165 -394 69 -46 127 -59 240 -54 74 3 102 9 142 30 91 47 160
139 190 255 17 66 20 225 5 304 -14 72 -61 166 -107 213 -76 77 -215 118 -333
96z m40 -27 c-14 -2 -39 -11 -57 -19 -17 -8 -38 -14 -48 -14 -9 0 -14 -4 -11
-8 2 -4 -10 -18 -28 -30 -33 -22 -91 -123 -100 -172 -2 -14 -6 -27 -7 -30 -5
-11 -8 -61 -8 -150 1 -142 3 -194 7 -180 3 7 11 -4 18 -25 7 -21 10 -43 7 -48
-3 -6 -2 -8 3 -4 5 3 22 -17 39 -44 16 -27 35 -49 42 -49 8 0 16 -7 20 -16 6
-17 42 -35 83 -41 41 -7 37 -15 -5 -10 -51 6 -124 39 -163 75 -7 6 -10 12 -5
12 4 0 -3 7 -15 16 -12 8 -22 21 -22 28 0 8 -6 19 -14 25 -12 10 -33 71 -43
126 -10 50 -14 215 -7 215 5 0 9 17 8 38 0 20 6 49 13 64 7 15 13 36 13 46 0
10 9 27 20 37 11 10 20 23 20 30 0 7 10 20 22 31 12 10 18 13 13 5 -6 -10 -4
-12 4 -7 7 5 10 14 7 22 -3 7 -1 16 4 19 6 4 10 1 10 -4 0 -6 4 -11 10 -11 5
0 7 6 5 13 -3 7 12 20 37 32 63 28 79 33 118 33 25 -1 28 -2 10 -5z m155 -13
c6 -5 15 -7 18 -3 4 3 7 1 7 -6 0 -7 4 -10 8 -7 13 8 53 -24 46 -36 -4 -6 -1
-9 7 -6 20 7 82 -60 76 -82 -4 -14 -1 -17 12 -13 9 4 13 2 8 -2 -4 -5 -1 -18
6 -29 43 -67 55 -281 23 -391 -10 -33 -22 -65 -27 -71 -5 -6 -6 -14 -2 -17 3
-4 -1 -7 -10 -7 -11 0 -14 -5 -10 -17 5 -12 3 -14 -7 -8 -9 6 -11 4 -5 -4 4
-8 -5 -25 -26 -44 -18 -18 -29 -27 -26 -20 4 6 3 15 -3 18 -6 4 -10 3 -9 -2 6
-33 -32 -64 -81 -67 -8 -1 -19 -4 -25 -7 -21 -13 -67 -20 -60 -9 3 5 17 10 30
10 13 0 27 5 30 11 4 6 12 8 19 6 7 -3 23 8 35 24 13 16 27 27 31 24 8 -5 24
24 22 37 -1 4 5 5 13 2 11 -5 13 -2 8 12 -5 13 -3 15 7 9 8 -5 11 -4 7 2 -3 5
3 27 13 49 11 21 21 48 23 59 1 11 5 25 8 30 11 18 7 279 -3 293 -6 6 -8 12
-5 12 3 0 -1 16 -9 35 -8 20 -12 40 -9 45 4 6 1 10 -4 10 -6 0 -11 7 -11 15 0
8 -5 15 -11 15 -6 0 -8 7 -5 16 3 8 2 13 -2 10 -5 -3 -16 8 -26 25 -9 16 -22
29 -27 29 -5 0 -19 9 -31 20 -12 11 -29 20 -38 20 -9 0 -20 4 -25 9 -6 5 -21
11 -35 14 -14 2 -5 3 19 1 24 -2 49 -8 56 -14z m-9 -45 c59 -29 104 -86 131
-165 27 -80 26 -334 -1 -405 -45 -118 -113 -174 -221 -182 -162 -14 -262 90
-285 295 -20 178 16 339 94 416 48 49 88 64 172 65 46 1 72 -5 110 -24z m-96
-785 c-8 -5 -24 -9 -35 -9 -16 1 -16 2 5 9 35 11 48 11 30 0z"/>
<path d="M1720 1629 c0 -5 5 -7 10 -4 6 3 10 8 10 11 0 2 -4 4 -10 4 -5 0 -10
-5 -10 -11z"/>
<path d="M1642 1370 c0 -19 2 -27 5 -17 2 9 2 25 0 35 -3 9 -5 1 -5 -18z"/>
<path d="M2150 1736 c0 -2 7 -7 16 -10 8 -3 12 -2 9 4 -6 10 -25 14 -25 6z"/>
<path d="M1905 1690 c-3 -6 1 -7 9 -4 18 7 21 14 7 14 -6 0 -13 -4 -16 -10z"/>
<path d="M1800 1621 c0 -10 19 -25 25 -20 1 2 -3 10 -11 17 -8 7 -14 8 -14 3z"/>
<path d="M1818 1109 c7 -9 10 -25 6 -35 -5 -18 -5 -18 6 0 10 15 9 21 -6 35
-16 14 -17 14 -6 0z"/>
<path d="M4870 1811 c-137 -29 -218 -147 -191 -280 19 -95 68 -139 235 -211
94 -40 140 -81 155 -135 21 -79 -14 -154 -89 -192 -80 -41 -209 -21 -278 44
-32 31 -36 32 -48 15 -23 -29 -11 -55 39 -89 66 -44 115 -55 217 -51 68 2 96
8 135 29 137 70 176 254 78 369 -29 33 -65 56 -158 101 -168 81 -185 98 -185
189 0 99 54 151 156 151 65 0 118 -15 161 -47 17 -13 34 -24 37 -24 3 0 6 15
6 34 0 24 -6 38 -22 48 -65 41 -179 64 -248 49z m20 -28 c0 -5 -19 -16 -41
-27 -22 -10 -49 -28 -60 -40 -19 -20 -20 -20 -14 -1 5 16 5 17 -3 5 -8 -10 -7
-19 1 -29 9 -11 9 -13 0 -8 -8 5 -14 -9 -18 -47 -8 -61 6 -119 36 -152 11 -11
16 -24 12 -28 -4 -4 0 -4 8 -1 9 3 22 -1 29 -10 7 -8 19 -15 26 -15 8 0 14 -5
14 -11 0 -5 5 -7 10 -4 6 3 10 1 10 -5 0 -7 6 -10 13 -7 6 2 20 0 30 -5 16 -8
16 -12 5 -26 -12 -15 -11 -16 4 -3 15 11 24 10 65 -9 51 -24 109 -80 124 -118
12 -32 11 -89 -2 -114 -8 -15 -8 -19 0 -14 6 4 11 2 11 -3 0 -6 -5 -11 -10
-11 -6 0 -10 -8 -8 -17 2 -11 -2 -17 -11 -15 -12 3 -12 1 0 -14 8 -10 9 -15 2
-11 -7 4 -14 -1 -18 -13 -3 -11 -11 -20 -17 -20 -6 0 -8 -3 -5 -7 8 -8 -51
-45 -62 -39 -4 3 -13 0 -21 -6 -12 -8 -11 -8 5 -3 11 3 16 3 12 -2 -5 -4 -21
-8 -36 -9 -15 -1 -38 -4 -52 -8 l-24 -6 25 11 c14 6 41 18 59 27 19 10 39 16
44 14 5 -1 6 1 3 6 -6 10 39 53 47 46 2 -3 7 2 11 11 3 9 2 13 -4 10 -12 -7
-12 -3 -4 19 3 9 10 14 14 11 5 -3 12 0 16 6 4 7 3 9 -3 6 -7 -5 -11 6 -11 27
0 52 -12 97 -33 119 -10 11 -16 25 -12 30 3 6 1 7 -5 3 -7 -4 -12 -3 -12 3 0
5 -27 22 -60 37 -34 15 -57 31 -53 37 3 6 1 7 -6 3 -6 -4 -17 -3 -24 2 -7 5
-24 12 -39 16 -14 3 -41 18 -59 33 -18 16 -29 21 -24 13 5 -8 -7 1 -26 20 -19
19 -35 42 -36 50 -15 97 -2 190 26 190 9 0 12 3 6 8 -13 9 -18 35 -5 27 5 -3
10 -2 10 3 0 11 51 36 68 33 7 -1 11 4 10 11 -2 7 5 13 14 13 9 0 20 4 24 8
10 9 24 9 24 0z m164 -12 c3 -4 -6 -6 -19 -3 -14 2 -25 6 -25 8 0 8 39 4 44
-5z m57 -38 c13 -16 12 -17 -3 -4 -17 13 -22 21 -14 21 2 0 10 -8 17 -17z
m-356 -763 c-6 -9 14 -14 43 -11 6 1 12 -3 12 -9 0 -13 -11 -13 -45 0 -14 5
-23 14 -20 20 3 5 8 10 11 10 3 0 2 -4 -1 -10z m135 -30 c-8 -5 -26 -9 -40 -9
-23 1 -23 2 5 9 43 11 52 11 35 0z"/>
<path d="M4904 1378 c10 -6 22 -6 26 -2 5 5 -3 10 -18 11 -22 1 -24 0 -8 -9z"/>
<path d="M4940 1346 c0 -2 7 -7 16 -10 8 -3 12 -2 9 4 -6 10 -25 14 -25 6z"/>
<path d="M800 1805 c0 -3 0 -202 0 -442 l-1 -438 51 -5 50 -6 0 216 0 215 201
-2 202 -2 -2 -211 -2 -210 55 0 56 0 0 445 0 445 -56 0 -55 0 2 -201 1 -201
-201 -1 -201 -2 0 203 0 202 -50 0 c-27 0 -50 -2 -50 -5z m565 -25 c-3 -5 -1
-10 4 -10 8 0 11 -128 11 -411 l0 -410 -22 3 c-23 3 -23 4 -25 186 -1 188 -6
237 -23 227 -15 -9 -12 7 5 29 12 16 15 56 15 193 0 132 3 173 13 173 8 0 8 3
-2 9 -11 7 -10 10 5 14 10 2 20 5 22 6 2 0 0 -3 -3 -9z m-495 -187 c0 -112 4
-184 10 -188 6 -4 8 -11 4 -16 -3 -5 0 -8 7 -7 6 2 14 -3 17 -11 3 -8 0 -11
-6 -7 -24 15 -32 -38 -32 -222 0 -179 -1 -190 -19 -195 -12 -3 -22 1 -25 10
-8 19 -8 787 0 806 3 9 14 15 25 14 18 -1 19 -11 19 -184z m333 -220 c-45 -2
-122 -2 -170 0 -48 1 -11 3 82 3 94 0 133 -2 88 -3z"/>
<path d="M2560 1366 l0 -444 50 -4 50 -3 0 158 0 157 75 0 c103 0 168 16 218
54 114 87 141 303 53 419 -60 79 -148 106 -353 107 l-93 0 0 -444z m155 407
c-86 -7 -85 -4 -85 -255 0 -182 3 -222 15 -234 8 -9 15 -22 15 -30 0 -8 -7
-17 -15 -20 -12 -5 -15 -31 -15 -144 0 -129 -1 -138 -20 -143 -20 -5 -20 0
-20 414 l0 419 88 -2 c57 -1 70 -3 37 -5z m148 -3 c10 0 16 -4 13 -9 -3 -5 5
-8 18 -8 13 0 34 -8 47 -17 13 -9 21 -16 18 -16 -4 0 8 -16 27 -35 27 -29 33
-45 39 -98 4 -35 4 -88 1 -118 -4 -30 -7 -59 -8 -66 -1 -7 -6 -11 -12 -10 -5
1 -10 -3 -11 -10 0 -17 -13 -27 -35 -28 -22 -2 -27 10 -9 20 6 4 8 13 5 20 -2
7 0 17 5 22 16 16 22 126 8 173 -7 25 -13 56 -13 70 -1 14 -4 23 -7 20 -11 -9
-40 23 -35 37 4 9 1 11 -5 7 -6 -4 -14 -2 -18 4 -4 6 -27 21 -51 32 -25 12
-34 19 -20 16 14 -3 33 -6 43 -6z m-3 -51 c21 -12 48 -40 61 -63 21 -35 24
-54 24 -136 0 -170 -49 -225 -207 -232 l-78 -3 0 233 0 234 81 -6 c56 -4 93
-13 119 -27z m116 -382 c4 -7 4 -9 0 -5 -5 4 -20 -6 -35 -21 -28 -28 -97 -58
-108 -47 -4 3 0 6 8 6 8 0 32 17 53 38 41 39 71 50 82 29z"/>
<path d="M2995 1430 c-3 -6 1 -7 9 -4 18 7 21 14 7 14 -6 0 -13 -4 -16 -10z"/>
<path d="M2889 1293 c-13 -16 -12 -17 4 -4 16 13 21 21 13 21 -2 0 -10 -8 -17
-17z"/>
<path d="M3230 1365 l0 -444 255 -3 255 -3 0 33 0 32 -200 0 -200 0 0 181 0
180 170 -3 170 -3 0 33 0 32 -172 0 -173 0 0 170 0 170 190 0 191 0 -4 35 -4
35 -239 0 -239 0 0 -445z m290 408 c-91 -2 -172 -6 -180 -10 -8 -3 -18 -6 -22
-5 -3 1 -5 -6 -3 -16 1 -9 -3 -20 -9 -24 -8 -6 -8 -8 1 -8 7 0 10 -9 8 -21 -3
-12 -5 -82 -6 -156 -1 -117 1 -136 17 -147 17 -13 11 -42 -7 -31 -5 3 -6 -1
-3 -9 3 -9 2 -16 -2 -16 -5 0 -8 -48 -6 -106 2 -58 -1 -125 -6 -150 -6 -30 -6
-42 1 -37 7 4 8 -5 4 -25 -5 -25 -3 -32 13 -37 34 -11 22 -26 -17 -23 l-38 3
-3 399 c-1 286 1 403 9 412 9 11 53 14 213 12 l201 -2 -165 -3z m183 -820 c3
-5 -34 -7 -81 -5 -135 4 -148 9 -30 11 59 0 109 -2 111 -6z"/>
<path d="M4125 1798 c-8 -23 -287 -853 -292 -869 -4 -13 2 -15 33 -10 l37 6
46 133 45 132 176 0 175 0 44 -134 45 -134 53 -4 c29 -2 53 -1 53 1 0 2 -65
204 -146 447 l-145 444 -60 0 c-39 0 -61 -4 -64 -12z m114 -44 c6 -14 9 -30 6
-35 -4 -5 -2 -9 3 -9 10 0 27 -48 23 -64 -1 -4 2 -13 7 -20 5 -6 19 -45 31
-86 12 -41 27 -83 33 -94 7 -14 7 -16 -4 -10 -10 6 -9 3 1 -10 18 -22 51 -118
45 -128 -3 -5 -1 -8 4 -8 6 0 13 -16 17 -36 3 -20 10 -44 15 -53 21 -40 51
-144 46 -157 -3 -9 -1 -12 4 -9 6 3 10 3 11 -2 2 -21 8 -50 14 -70 6 -20 5
-21 -21 -14 -23 6 -30 14 -32 39 -2 18 -7 32 -11 32 -3 0 -8 10 -8 22 -1 13
-7 24 -13 26 -5 2 -10 8 -10 14 0 5 -7 34 -16 64 -12 42 -21 55 -39 60 -22 5
-23 8 -9 21 15 15 12 59 -7 109 -4 12 -5 25 -2 28 4 3 2 6 -4 6 -15 0 -26 50
-14 64 7 8 6 17 -1 26 -8 12 -9 12 -4 -2 3 -10 1 -20 -4 -23 -11 -7 -23 32
-14 46 4 8 3 9 -4 5 -7 -4 -12 -1 -13 6 -1 22 -6 42 -20 73 -7 17 -11 36 -10
43 1 8 -3 20 -10 28 -6 8 -9 23 -6 34 3 11 1 18 -3 15 -5 -3 -11 8 -15 23 -5
23 -11 28 -35 28 -23 0 -30 -4 -30 -20 0 -14 -3 -17 -11 -9 -8 8 -7 17 2 34
16 32 28 39 65 39 23 0 34 -6 43 -26z m13 -279 c39 -121 74 -222 78 -225 5 -3
-66 -5 -156 -5 -142 0 -163 2 -158 15 3 8 37 112 75 230 86 263 81 250 86 225
3 -11 36 -119 75 -240z m-131 192 c-10 -9 -11 -8 -5 6 3 10 9 15 12 12 3 -3 0
-11 -7 -18z m-32 -111 c-12 -26 -24 -45 -27 -42 -2 3 -1 13 3 23 5 10 7 24 6
32 -1 8 2 10 10 5 9 -5 10 -2 6 10 -4 10 -3 15 3 11 6 -3 10 -1 10 6 0 7 3 10
6 7 3 -3 -5 -27 -17 -52z m-41 -100 c-1 -14 -5 -23 -9 -20 -7 4 0 44 7 44 2 0
3 -11 2 -24z m-15 -56 c3 -11 1 -23 -4 -26 -5 -3 -9 6 -9 20 0 31 6 34 13 6z
m-22 -83 c-7 -17 -13 -41 -13 -52 1 -16 -1 -17 -8 -5 -13 20 -13 50 0 50 5 0
7 7 4 15 -4 8 -1 15 5 15 6 0 8 8 4 18 -5 14 -4 15 8 4 11 -10 11 -18 0 -45z
m-20 -108 c-9 -9 -23 -31 -31 -48 -7 -17 -17 -31 -22 -31 -5 0 -6 -4 -3 -10 3
-5 1 -18 -4 -27 -9 -16 -10 -14 -11 9 0 15 4 29 8 32 5 3 17 32 27 64 17 57
18 59 36 44 18 -15 18 -17 0 -33z m-77 -171 c-10 -56 -13 -63 -26 -50 -9 9 -7
20 8 47 10 19 20 35 21 35 1 0 0 -15 -3 -32z m-30 -83 c3 -8 1 -15 -4 -15 -6
0 -10 7 -10 15 0 8 2 15 4 15 2 0 6 -7 10 -15z"/>
<path d="M5252 1788 c8 -13 36 -61 63 -108 26 -47 88 -155 137 -241 l89 -156
-3 -181 -3 -180 53 -4 52 -3 0 188 0 188 47 82 c26 45 57 100 69 122 12 22 56
100 98 174 42 73 76 136 76 138 0 2 -18 3 -41 1 l-41 -3 -115 -205 c-63 -113
-118 -211 -122 -219 -5 -9 -49 61 -130 208 l-123 221 -60 0 c-60 0 -60 0 -46
-22z m111 -38 c10 -17 15 -35 11 -42 -4 -6 -3 -8 3 -5 11 7 47 -49 39 -62 -4
-5 -3 -11 1 -13 14 -6 53 -67 53 -82 0 -7 7 -17 16 -20 10 -4 13 -13 9 -27 -4
-13 -3 -19 2 -16 12 8 56 -69 48 -83 -4 -6 1 -7 12 -3 16 6 16 5 4 -10 -7 -9
-18 -14 -24 -10 -6 3 -7 1 -3 -6 6 -9 11 -9 22 0 11 9 15 8 20 -5 8 -20 43
-21 50 -2 3 8 12 12 20 9 13 -5 13 -8 1 -22 -27 -31 -31 -58 -37 -231 -5 -165
-6 -175 -25 -178 -16 -3 -17 -1 -5 7 10 7 11 11 3 11 -10 0 -13 38 -13 158 0
124 -3 162 -15 179 -8 12 -12 28 -9 37 3 9 2 16 -4 16 -8 0 -34 41 -135 214
-42 71 -71 132 -69 143 2 6 -5 17 -15 25 -28 20 -28 48 -1 48 16 0 30 -10 41
-30z m506 -2 c-7 -13 -24 -41 -39 -63 -15 -22 -30 -50 -34 -62 -4 -13 -12 -23
-17 -23 -6 0 -7 -5 -3 -12 5 -7 3 -8 -6 -3 -8 5 -11 3 -8 -6 6 -15 -31 -89
-44 -89 -4 0 -8 -8 -8 -18 0 -10 -9 -24 -19 -31 -11 -8 -17 -19 -15 -25 5 -15
-13 -42 -23 -33 -4 5 -1 12 6 16 7 5 11 13 8 18 -4 6 4 21 16 34 12 13 21 25
20 26 -1 1 5 19 13 38 9 21 19 33 26 29 6 -4 9 -1 6 7 -5 16 27 84 54 113 10
11 18 26 18 33 0 7 4 13 10 13 5 0 7 6 4 14 -3 8 5 21 18 30 29 21 31 20 17
-6z"/>
<path d="M5496 1443 c-6 -14 -5 -15 5 -6 7 7 10 15 7 18 -3 3 -9 -2 -12 -12z"/>
<path d="M5221 1754 c0 -11 3 -14 6 -6 3 7 2 16 -1 19 -3 4 -6 -2 -5 -13z"/>
<path d="M2244 1749 c-4 -7 -3 -9 4 -5 5 3 13 0 15 -6 4 -9 6 -10 6 -1 1 17
-16 25 -25 12z"/>
<path d="M410 1716 c0 -2 7 -7 16 -10 8 -3 12 -2 9 4 -6 10 -25 14 -25 6z"/>
<path d="M4855 1701 c-3 -5 -2 -12 3 -15 5 -3 9 1 9 9 0 17 -3 19 -12 6z"/>
<path d="M5705 1669 c-4 -6 -5 -12 -2 -15 2 -3 7 2 10 11 7 17 1 20 -8 4z"/>
<path d="M5880 1636 c0 -2 8 -10 18 -17 15 -13 16 -12 3 4 -13 16 -21 21 -21
13z"/>
<path d="M2375 1589 c-4 -6 -5 -12 -2 -15 2 -3 7 2 10 11 7 17 1 20 -8 4z"/>
<path d="M460 1430 c-9 -6 -10 -10 -3 -10 6 0 15 5 18 10 8 12 4 12 -15 0z"/>
<path d="M3731 1374 c0 -11 3 -14 6 -6 3 7 2 16 -1 19 -3 4 -6 -2 -5 -13z"/>
<path d="M407 1226 c-4 -10 -1 -13 8 -9 8 3 12 9 9 14 -7 12 -11 11 -17 -5z"/>
<path d="M4963 1215 c0 -7 6 -11 14 -8 7 3 13 6 13 8 0 2 -6 5 -13 8 -8 3 -14
-1 -14 -8z"/>
<path d="M4966 1032 c-3 -5 1 -9 9 -9 8 0 12 4 9 9 -3 4 -7 8 -9 8 -2 0 -6 -4
-9 -8z"/>
<path d="M2296 1013 c-6 -14 -5 -15 5 -6 7 7 10 15 7 18 -3 3 -9 -2 -12 -12z"/>
<path d="M4908 1013 c7 -3 16 -2 19 1 4 3 -2 6 -13 5 -11 0 -14 -3 -6 -6z"/>
<path d="M5169 1003 c-13 -16 -12 -17 4 -4 9 7 17 15 17 17 0 8 -8 3 -21 -13z"/>
<path d="M3946 973 c-6 -14 -5 -15 5 -6 7 7 10 15 7 18 -3 3 -9 -2 -12 -12z"/>
<path d="M2277 969 c7 -7 15 -10 18 -7 3 3 -2 9 -12 12 -14 6 -15 5 -6 -5z"/>
<path d="M5140 975 c0 -7 30 -13 34 -7 3 4 -4 9 -15 9 -10 1 -19 0 -19 -2z"/>
<path d="M4722 895 c15 -16 20 -17 30 -6 11 11 10 13 0 7 -7 -4 -21 -2 -30 5
-15 12 -15 11 0 -6z"/>
</g>
</svg>
